# Blender v2.79 (sub 0) OBJ File: 'Grass_Block_za_Obj.blend'
# www.blender.org
mtllib Grass_Block.mtl
o Grass_Block_Cube
v 1.000000 0.000003 -1.000000
v 1.000000 0.000003 1.000000
v -1.000000 0.000003 1.000000
v -1.000000 0.000003 -1.000000
v 1.000000 2.000003 -0.999999
v 0.999999 2.000003 1.000001
v -1.000000 2.000003 1.000000
v -1.000000 2.000003 -1.000000
vt 0.666666 25.00000
vt 0.333333 25.00000
vt 0.333333 0.000000
vt 0.666666 0.000000
vt 0.666666 0.500000
vt 0.666666 0.750000
vt 0.333333 0.750000
vt 0.333333 0.500000
vt 0.000000 0.500000
vt 0.000000 0.750000
vt 0.333333 1.000000
vt 0.666666 1.000000
vt 1.000000 0.500000
vt 1.000000 0.750000
vn 0.0000 -1.0000 -0.0000
vn 0.0000 1.0000 0.0000
vn 1.0000 0.0000 0.0000
vn -0.0000 -0.0000 1.0000
vn -1.0000 -0.0000 -0.0000
vn 0.0000 0.0000 -1.0000
usemtl Grass_Block_TEX
s off
f 1/1/1 2/2/1 3/3/1 4/4/1
f 5/5/2 8/6/2 7/7/2 6/8/2
f 1/1/3 5/5/3 6/8/3 2/2/3
f 2/9/4 6/8/4 7/7/4 3/10/4
f 3/11/5 7/7/5 8/6/5 4/12/5
f 5/5/6 1/13/6 4/14/6 8/6/6
